# xmcd CD database file
#
# Track frame offsets:
#	150
#	17625
#	38862
#	55902
#	74687
#	91555
#	110332
#	130272
#	151692
#	169885
#	183882
#	203987
#
# Disc length: 2938 seconds
#
# Revision: 1
# Processed by: cddbd v1.5.2PL0 Copyright (c) Steve Scherf et al.
# Submitted via: CDex 1.70beta2
#
DISCID=980b780c
DTITLE=Various Artist - スーパーロボット魂(スピリッツ)ザ・ベストVOL4(DISC-02)
DYEAR=2004
DGENRE=Game
TTITLE0=堀江 美都子/鋼鉄のコクピット
TTITLE1=鋼鉄兄弟/BLACK HOLE
TTITLE2=岩永 雅子/MARIONETTE MESSIAH
TTITLE3=影山 ヒロノブ/VANISHING TROOPER
TTITLE4=Sachi and Nao/勇気の時代
TTITLE5=串田 アキラ/TIME DIVER
TTITLE6=リューネ・ゾルダーク(CV:日高 奈留美)/白き鋼の天使　ヴァルシオーネＲ（ドラマレス.ver）
TTITLE7=レナンジェス・スターロード(CV:難波 圭一)/男なら青春を炎と燃やせ
TTITLE8=ミーナ・ライクリング(CV:日高 のり子)/未来的中！
TTITLE9=ホワン・ヤンロン(CV:井上 和彦)/爆焔的紅蓮闘志！(ドラマレス.ver)
TTITLE10=グレース・ウリジン(CV:宮村 優子)/Love Story
TTITLE11=水木 一郎/熱き血が勇気に
EXTD=YEAR: 2004
EXTT0=
EXTT1=
EXTT2=
EXTT3=
EXTT4=
EXTT5=
EXTT6=
EXTT7=
EXTT8=
EXTT9=
EXTT10=
EXTT11=
PLAYORDER=
